HIERARCHY
ROOT Hips
{
	OFFSET -205.430496 91.959190 327.678589
	CHANNELS 6 Xposition Yposition Zposition Zrotation Yrotation Xrotation 
	JOINT LeftUpLeg
	{
		OFFSET 0.103457 1.857824 10.548498
		CHANNELS 3 Zrotation Yrotation Xrotation
		JOINT LeftLeg
		{
			OFFSET 43.499996 -0.000015 -0.000004
			CHANNELS 3 Zrotation Yrotation Xrotation
			JOINT LeftFoot
			{
				OFFSET 42.372196 0.000008 -0.000001
				CHANNELS 3 Zrotation Yrotation Xrotation
				JOINT LeftToe
				{
					OFFSET 17.299995 -0.000002 0.000010
					CHANNELS 3 Zrotation Yrotation Xrotation
					End Site
					{
						OFFSET 0.000000 0.000000 0.000000
					}
				}
			}
		}
	}
	JOINT RightUpLeg
	{
		OFFSET 0.103454 1.857824 -10.548500
		CHANNELS 3 Zrotation Yrotation Xrotation
		JOINT RightLeg
		{
			OFFSET 43.500046 -0.000011 0.000004
			CHANNELS 3 Zrotation Yrotation Xrotation
			JOINT RightFoot
			{
				OFFSET 42.372265 -0.000011 0.000026
				CHANNELS 3 Zrotation Yrotation Xrotation
				JOINT RightToe
				{
					OFFSET 17.299980 -0.000010 -0.000006
					CHANNELS 3 Zrotation Yrotation Xrotation
					End Site
					{
						OFFSET 0.000000 0.000000 0.000000
					}
				}
			}
		}
	}
	JOINT Spine
	{
		OFFSET 6.901963 -2.603726 0.000004
		CHANNELS 3 Zrotation Yrotation Xrotation
		JOINT Spine1
		{
			OFFSET 12.588104 -0.000003 -0.000010
			CHANNELS 3 Zrotation Yrotation Xrotation
			JOINT Spine2
			{
				OFFSET 12.343198 -0.000010 0.000004
				CHANNELS 3 Zrotation Yrotation Xrotation
				JOINT Neck
				{
					OFFSET 25.832890 0.000000 -0.000007
					CHANNELS 3 Zrotation Yrotation Xrotation
					JOINT Head
					{
						OFFSET 11.766619 0.000023 0.000000
						CHANNELS 3 Zrotation Yrotation Xrotation
						End Site
						{
							OFFSET 0.000000 0.000000 0.000000
						}
					}
				}
				JOINT LeftShoulder
				{
					OFFSET 19.745903 -1.480354 6.000105
					CHANNELS 3 Zrotation Yrotation Xrotation
					JOINT LeftArm
					{
						OFFSET 11.284121 -0.000017 -0.000021
						CHANNELS 3 Zrotation Yrotation Xrotation
						JOINT LeftForeArm
						{
							OFFSET 33.000046 0.000028 0.000038
							CHANNELS 3 Zrotation Yrotation Xrotation
							JOINT LeftHand
							{
								OFFSET 25.200014 0.000018 0.000005
								CHANNELS 3 Zrotation Yrotation Xrotation
								End Site
								{
									OFFSET 0.000000 0.000000 0.000000
								}
							}
						}
					}
				}
				JOINT RightShoulder
				{
					OFFSET 19.746107 -1.480354 -6.000082
					CHANNELS 3 Zrotation Yrotation Xrotation
					JOINT RightArm
					{
						OFFSET 11.284134 -0.000006 -0.000004
						CHANNELS 3 Zrotation Yrotation Xrotation
						JOINT RightForeArm
						{
							OFFSET 33.000084 0.000028 0.000016
							CHANNELS 3 Zrotation Yrotation Xrotation
							JOINT RightHand
							{
								OFFSET 25.199760 0.000129 0.000414
								CHANNELS 3 Zrotation Yrotation Xrotation
								End Site
								{
									OFFSET 0.000000 0.000000 0.000000
								}
							}
						}
					}
				}
			}
		}
	}
}
MOTION
Frames: 14
Frame Time: 0.033333
-56.890049 43.585880 456.196686 66.853263 48.831358 -89.152492 121.184317 -25.665807 179.750512 -84.327817 4.231371 -13.544238 77.833250 4.436772 -18.077163 21.454551 0.003091 -0.000002 98.366793 -12.966802 179.657307 -130.796798 -1.902481 -18.628451 67.083215 16.610556 8.270937 21.454560 -0.003112 -0.000030 12.980750 3.198831 -3.295229 15.793072 6.817413 -6.131803 15.474521 6.780480 -6.172812 17.102816 12.089075 -9.391540 -45.515534 -9.412880 -0.319942 91.769882 -66.160989 88.760234 -48.728789 6.084194 -6.809693 -32.081593 -10.350563 0.970033 -64.138878 -55.035861 77.043769 165.156173 81.033665 -13.539096 -51.556122 -1.936504 25.760849 -49.968083 17.987501 -1.978383 -12.722634 62.066134 -25.667725 
-51.376270 38.694401 455.067688 69.047899 46.330590 -80.828800 120.292568 -25.484208 -176.962046 -81.912014 5.517365 -16.180286 74.513348 7.149422 -13.322116 21.454553 0.003091 0.000002 100.853118 -13.537801 178.296474 -127.811595 -2.498995 -31.805268 72.707651 30.296154 22.800331 21.454553 -0.003113 -0.000016 12.531340 3.050453 -4.432463 14.828418 6.644045 -8.449456 14.511782 6.593204 -8.489160 18.726173 15.512464 -9.872785 -45.538049 -10.335258 0.587907 94.070706 -64.532365 86.632958 -44.417919 8.980571 -5.085626 -30.103277 -9.698330 0.888428 -60.871834 -50.926485 73.175512 173.299589 77.932616 -5.379712 -54.719535 -6.786712 21.224553 -46.570429 17.494891 -1.837409 -11.928674 66.345186 -24.005048 
-46.465801 34.663460 453.710114 73.050724 43.972102 -71.826604 117.905212 -26.608793 -170.699623 -78.778739 6.631161 -14.657081 70.479663 6.691958 -10.098974 21.454551 0.003091 0.000002 102.417362 -14.692403 -172.009107 -127.996201 -2.195209 -28.649027 74.219916 28.538663 25.580571 21.454558 -0.003111 -0.000019 12.031219 3.056510 -5.070470 13.786626 6.695760 -9.755023 13.471222 6.637139 -9.794871 20.098223 18.690007 -11.092582 -45.225162 -10.069044 -0.451500 92.930120 -63.708159 87.845180 -42.024737 11.923352 -1.425420 -28.279341 -9.196182 0.822172 -55.096308 -47.606712 67.298448 -179.242892 76.482116 2.193696 -56.493721 -12.846317 17.284653 -43.468284 16.414029 -1.673774 -6.736698 71.342385 -17.907842 
-41.967640 30.716789 452.492493 74.263486 41.099448 -66.529382 116.516552 -27.944397 -166.831796 -75.401901 7.189220 -12.441996 66.735074 8.534460 0.103995 21.454550 0.003088 0.000012 104.424392 -15.923490 -162.271061 -126.942208 -2.040100 -20.642486 74.223714 24.469238 30.707199 21.454557 -0.003108 -0.000015 11.694579 2.487990 -5.319298 13.139891 5.564490 -10.332084 12.825818 5.502462 -10.365047 21.599771 20.668380 -12.055309 -43.857294 -8.787157 -2.508020 91.554895 -63.789254 89.201062 -41.122916 12.469339 3.770281 -26.809524 -6.642653 0.628573 -50.175594 -44.736571 62.430333 -171.770296 76.747079 9.832504 -58.005457 -20.377009 15.810428 -40.980148 15.378048 -1.536524 0.961575 75.464998 -9.999197 
-38.247662 26.760180 451.353607 73.180033 38.065119 -65.145504 117.505687 -30.047901 -166.089314 -72.513523 7.509873 -10.523058 67.301583 12.070493 13.710932 21.454553 0.003091 0.000002 106.706140 -17.294295 -154.068618 -125.663009 -2.062791 -19.087097 73.763646 22.942482 29.077143 21.454558 -0.003107 -0.000019 11.480208 1.407918 -5.294242 12.798688 3.393586 -10.403809 12.485690 3.331168 -10.423790 24.821659 20.383877 -12.054781 -42.651656 -6.688837 -5.017845 88.423404 -64.924384 92.193764 -40.410503 13.732959 9.190905 -27.025276 -5.869144 0.580502 -44.799368 -41.595927 59.017609 -171.839199 76.707109 9.761901 -58.162756 -27.517075 14.670690 -40.017481 14.922527 -1.481083 10.284779 78.061365 -1.622449 
-35.100349 23.443451 450.164795 71.548533 36.108143 -65.972695 120.414446 -33.155702 -164.413254 -69.729032 6.602268 -8.684656 69.610447 10.221598 12.873471 21.454551 0.003094 -0.000008 106.649941 -21.149998 -147.862476 -124.804495 -2.081577 -14.846200 70.463571 19.648045 25.620888 21.454555 -0.003109 -0.000012 11.013193 0.167689 -4.983245 11.977139 0.850992 -9.922229 11.664157 0.791494 -9.927100 27.820458 17.901704 -11.939367 -40.404141 -4.078636 -8.049748 87.085595 -67.020596 93.316292 -39.739728 14.697780 15.657162 -29.572373 -6.581054 0.672545 -37.222260 -38.715452 53.827549 -172.890611 76.482922 8.685800 -58.583127 -34.750404 14.470830 -39.709678 15.433835 -1.506327 12.849758 78.979506 -0.226518 
-32.223511 20.384951 448.941315 69.667547 33.711857 -66.392294 123.989093 -35.696594 -162.509571 -66.450931 4.754830 -7.597484 71.474105 9.583735 13.821963 21.454551 0.003093 -0.000005 106.142021 -25.839202 -144.122770 -122.477900 -2.149853 -9.485335 67.005044 18.244933 29.544250 21.454555 -0.003108 -0.000022 10.697228 -0.932344 -4.636288 11.439925 -1.401170 -9.342660 11.126288 -1.457179 -9.334134 30.171920 15.746407 -11.931865 -39.757210 -2.412424 -10.090443 86.858122 -68.598438 93.391410 -39.215743 14.760011 20.584240 -32.283418 -7.474900 0.784561 -30.596652 -34.824379 49.556055 -173.007899 78.003854 8.578216 -60.573314 -42.173481 16.659692 -38.886487 15.835382 -1.511076 19.198432 80.347402 4.930223 
-29.707861 16.986231 447.775391 67.677763 30.148407 -63.566207 126.198482 -36.451603 -160.395258 -62.680086 4.416113 -6.563517 73.014012 9.140064 15.307762 21.454553 0.003092 -0.000002 107.156065 -28.090311 -139.321789 -119.442496 -2.276772 -4.359860 65.232241 14.979792 29.453794 21.454557 -0.003107 -0.000019 10.733886 -1.650933 -4.601496 11.574600 -2.832729 -9.348085 11.260649 -2.888756 -9.331015 31.360407 14.109737 -12.447588 -38.332497 -1.189694 -12.012732 86.110824 -68.849120 94.101019 -39.132531 14.299270 23.656726 -34.676594 -8.358940 0.893937 -23.730768 -29.433587 46.656039 -176.027799 81.477047 5.544301 -62.339294 -49.176307 18.346537 -39.324261 15.777185 -1.518619 44.920047 80.549780 29.630320 
-27.369801 13.533170 446.618896 65.771566 27.349693 -58.285802 125.982962 -36.203602 -159.413596 -58.371691 5.047018 -4.705499 73.448467 8.360158 17.099198 21.454555 0.003093 -0.000001 107.141325 -28.371201 -133.807408 -116.089392 -2.422651 0.170031 64.857899 12.616275 31.572806 21.454562 -0.003107 -0.000019 10.706458 -2.097102 -4.617637 11.559988 -3.721840 -9.427000 11.245795 -3.778306 -9.404614 31.220241 12.562118 -13.874183 -35.208362 0.028237 -14.595124 86.351193 -69.231118 93.829867 -41.838013 13.199201 24.812573 -36.155374 -9.368522 0.994088 -17.827764 -21.999022 45.879999 176.806509 86.129252 -1.605674 -64.485653 -56.479609 21.460642 -41.339348 15.491438 -1.553685 69.286457 78.718333 51.622621 
-25.550720 11.547660 446.209595 61.945970 25.878613 -53.808684 127.447355 -32.277801 -160.775591 -55.027009 6.731545 -4.368113 75.288035 8.277493 18.755887 21.454551 0.003092 -0.000005 107.466565 -25.976398 -132.822208 -113.968400 -2.250386 1.186379 63.700619 13.427832 34.389432 21.454560 -0.003108 -0.000022 10.944904 -2.841686 -4.434883 12.098370 -5.203567 -9.152829 11.783205 -5.258382 -9.121533 30.815242 12.296795 -15.604098 -34.265089 1.754456 -17.612592 84.948067 -69.129936 95.215207 -46.705670 12.230251 21.960074 -37.986008 -11.395711 1.171045 -12.642265 -12.390090 51.876322 130.537565 87.877350 -47.954147 -63.049831 -62.998427 25.172445 -46.429498 15.339789 -1.690680 72.474345 77.858986 54.120838 
-23.978840 12.316860 447.253387 59.799358 26.667674 -53.233313 128.728548 -28.756896 -162.303080 -53.215640 7.160244 -3.539125 77.582268 7.518707 19.578792 21.454550 0.003091 0.000002 107.302231 -23.377504 -135.853009 -113.653398 -1.874744 0.494600 63.420533 14.251749 34.885020 21.454562 -0.003109 -0.000019 11.297621 -3.134126 -3.922425 12.807574 -5.814345 -8.179245 12.491181 -5.863321 -8.144218 24.590530 9.330192 -17.889300 -28.773828 2.845768 -19.874271 90.746938 -71.566189 89.264500 -53.173395 10.927778 11.936837 -40.591360 -12.747882 1.325899 -7.907608 -6.031495 62.131950 128.793544 86.789902 -49.790959 -52.176522 -64.978042 20.944806 -57.682594 13.742045 -1.960251 44.793706 72.801880 29.914982 
-22.195990 12.741790 448.426788 57.187965 26.571676 -53.849696 129.709213 -27.936495 -162.415068 -50.936518 4.512592 -1.533378 77.317045 5.425405 16.502485 21.454555 0.003094 -0.000005 108.952288 -21.027605 -137.696518 -112.969799 -1.749782 -1.158096 65.622470 13.658893 32.419995 21.454555 -0.003108 -0.000022 11.747858 -3.309097 -3.672560 13.711542 -6.159135 -7.723831 13.394570 -6.205397 -7.686687 24.726501 3.964601 -17.956228 -31.720406 3.935877 -22.001308 94.128674 -71.148366 85.941026 -53.647594 12.399082 1.372369 -44.858551 -12.095515 1.400640 -11.087566 -7.747930 61.258348 81.623984 86.742378 -96.953921 -37.490044 -66.628639 11.555870 -71.337043 9.369461 -2.192654 29.861177 59.182367 22.432693 
-20.749161 12.776290 449.707001 54.754847 26.782510 -53.580993 129.181062 -26.239504 -161.548167 -50.133670 3.016993 -3.716337 77.380060 5.938283 12.906287 21.454555 0.003095 0.000002 110.191756 -18.037507 -138.654602 -112.635693 -1.599067 -2.499496 68.183545 12.897788 30.121906 21.454557 -0.003108 -0.000022 11.949162 -3.479765 -3.939622 14.142821 -6.451298 -8.289731 13.826121 -6.500937 -8.250853 24.849306 -0.451955 -17.897537 -33.132763 5.893522 -24.178776 90.200605 -70.321968 89.923812 -52.377463 14.286581 -1.086032 -50.102416 -12.650315 1.597057 -11.244877 -10.872838 52.879304 70.097726 87.192508 -108.405716 -16.429482 -64.247177 -4.238876 -87.661619 3.036719 -2.455163 23.674902 48.664767 19.166310 
-19.812160 12.557510 450.341309 53.366700 26.025174 -51.814519 127.294154 -25.435000 -160.940403 -51.358375 3.128949 -3.764915 78.814557 5.522176 11.909986 21.454550 0.003088 0.000008 111.197133 -16.358706 -138.519747 -112.134289 -1.560089 -1.961998 66.020636 12.151900 27.637321 21.454557 -0.003105 -0.000015 12.288759 -3.236581 -4.403659 14.821990 -5.881595 -9.199198 14.506482 -5.936664 -9.163839 22.101278 -2.677304 -17.977645 -32.512042 6.007470 -24.615085 89.337003 -70.960638 90.721400 -53.133551 14.437130 -0.132090 -54.895822 -13.687259 1.826126 -11.053769 -10.726193 52.645510 45.854557 89.571128 -132.460973 -2.364670 -59.050646 -14.219000 -99.773505 -0.104208 -2.777364 13.762710 44.398528 8.167734 
